<mxfile host="app.diagrams.net" modified="2021-12-29T03:11:50.651Z" agent="5.0 (Windows NT 10.0; Win64; x64) AppleWebKit/537.36 (KHTML, like Gecko) Chrome/95.0.4638.69 Safari/537.36" etag="zuIKtUi8WBraJiqdreTv" version="16.1.0" type="github">
  <diagram id="5-oCAgYc6utQjCwsf7Ji" name="Page-1">
    <mxGraphModel dx="868" dy="450" grid="1" gridSize="10" guides="1" tooltips="1" connect="1" arrows="1" fold="1" page="1" pageScale="1" pageWidth="827" pageHeight="1169" math="0" shadow="0">
      <root>
        <mxCell id="0" />
        <mxCell id="1" parent="0" />
        <mxCell id="z6VVnGHVxl8dxcapkKjv-3" value="" style="edgeStyle=orthogonalEdgeStyle;rounded=0;orthogonalLoop=1;jettySize=auto;html=1;" edge="1" parent="1" source="z6VVnGHVxl8dxcapkKjv-1" target="z6VVnGHVxl8dxcapkKjv-2">
          <mxGeometry relative="1" as="geometry" />
        </mxCell>
        <mxCell id="z6VVnGHVxl8dxcapkKjv-6" value="" style="edgeStyle=orthogonalEdgeStyle;rounded=0;orthogonalLoop=1;jettySize=auto;html=1;" edge="1" parent="1" source="z6VVnGHVxl8dxcapkKjv-1" target="z6VVnGHVxl8dxcapkKjv-2">
          <mxGeometry relative="1" as="geometry" />
        </mxCell>
        <mxCell id="z6VVnGHVxl8dxcapkKjv-8" value="" style="edgeStyle=orthogonalEdgeStyle;rounded=0;orthogonalLoop=1;jettySize=auto;html=1;" edge="1" parent="1" source="z6VVnGHVxl8dxcapkKjv-1" target="z6VVnGHVxl8dxcapkKjv-7">
          <mxGeometry relative="1" as="geometry" />
        </mxCell>
        <mxCell id="z6VVnGHVxl8dxcapkKjv-1" value="洗手时间" style="rounded=0;whiteSpace=wrap;html=1;" vertex="1" parent="1">
          <mxGeometry x="350" y="200" width="120" height="60" as="geometry" />
        </mxCell>
        <mxCell id="z6VVnGHVxl8dxcapkKjv-5" value="" style="edgeStyle=orthogonalEdgeStyle;rounded=0;orthogonalLoop=1;jettySize=auto;html=1;" edge="1" parent="1" source="z6VVnGHVxl8dxcapkKjv-2" target="z6VVnGHVxl8dxcapkKjv-4">
          <mxGeometry relative="1" as="geometry" />
        </mxCell>
        <mxCell id="z6VVnGHVxl8dxcapkKjv-2" value="洗手液" style="rounded=0;whiteSpace=wrap;html=1;" vertex="1" parent="1">
          <mxGeometry x="270" y="300" width="120" height="60" as="geometry" />
        </mxCell>
        <mxCell id="z6VVnGHVxl8dxcapkKjv-4" value="40-60秒" style="rounded=0;whiteSpace=wrap;html=1;" vertex="1" parent="1">
          <mxGeometry x="270" y="450" width="120" height="60" as="geometry" />
        </mxCell>
        <mxCell id="z6VVnGHVxl8dxcapkKjv-10" value="" style="edgeStyle=orthogonalEdgeStyle;rounded=0;orthogonalLoop=1;jettySize=auto;html=1;" edge="1" parent="1" source="z6VVnGHVxl8dxcapkKjv-7" target="z6VVnGHVxl8dxcapkKjv-9">
          <mxGeometry relative="1" as="geometry" />
        </mxCell>
        <mxCell id="z6VVnGHVxl8dxcapkKjv-7" value="快速手消剂" style="rounded=0;whiteSpace=wrap;html=1;" vertex="1" parent="1">
          <mxGeometry x="410" y="300" width="120" height="60" as="geometry" />
        </mxCell>
        <mxCell id="z6VVnGHVxl8dxcapkKjv-9" value="20-30秒" style="rounded=0;whiteSpace=wrap;html=1;" vertex="1" parent="1">
          <mxGeometry x="410" y="450" width="120" height="60" as="geometry" />
        </mxCell>
      </root>
    </mxGraphModel>
  </diagram>
</mxfile>
